# xmcd
# 
# Track frame offsets:
#     182
#     12620
#     26315
#     38952
#     56320
#     70495
#     83117
#     96400
#     108067
#     124707
# 
# Disc length: 1911
# 
# Revision: 6
# Processed by: cddbd v1.5.2PL0 Copyright (c) Steve Scherf et al.
# Submitted via: fre:ac v1.0.31
# 
DISCID=7b07750a
DTITLE=Pirates Of The Mississippi - Paradise
DYEAR=1995
DGENRE=Country
TTITLE0=Paradise
TTITLE1=Let The Joneses Win
TTITLE2=911
TTITLE3=The Biggest Broken Heart In Tennessee
TTITLE4=I Think Locally
TTITLE5=Weakness For The Weekend
TTITLE6=When Her Love Was Mine
TTITLE7=Country
TTITLE8=Rodeo Queen
TTITLE9=Feed Jake (Live)
EXTD=
EXTT0=
EXTT1=
EXTT2=
EXTT3=
EXTT4=
EXTT5=
EXTT6=
EXTT7=
EXTT8=
EXTT9=
PLAYORDER=
